<svg xmlns="http://www.w3.org/2000/svg" data-name="Layer 1" viewBox="0 0 512 512" x="0px" y="0px"><title>on off</title><path d="M256,512C114.84,512,0,398.57,0,259.15A249.13,249.13,0,0,1,46.57,113.7,255.06,255.06,0,0,1,165.78,22.46L177.8,54c-86,32-143.71,114.44-143.71,205.19C34.09,380,133.64,478.33,256,478.33S477.91,380,477.91,259.15c0-90.61-57.63-173-143.39-205.07l12.06-31.49a255.06,255.06,0,0,1,119,91.26A249.14,249.14,0,0,1,512,259.15C512,398.57,397.16,512,256,512Z"></path><rect x="238.96" width="34.09" height="291.55"></rect></svg>