<?xml version="1.0" encoding="UTF-8" standalone="no"?>
<svg
   xmlns:dc="http://purl.org/dc/elements/1.1/"
   xmlns:cc="http://creativecommons.org/ns#"
   xmlns:rdf="http://www.w3.org/1999/02/22-rdf-syntax-ns#"
   xmlns:svg="http://www.w3.org/2000/svg"
   xmlns="http://www.w3.org/2000/svg"
   xmlns:sodipodi="http://sodipodi.sourceforge.net/DTD/sodipodi-0.dtd"
   xmlns:inkscape="http://www.inkscape.org/namespaces/inkscape"
   version="1.1"
   x="0px"
   y="0px"
   viewBox="0 0 60 60"
   style="enable-background:new 0 0 60 60;"
   xml:space="preserve"
   id="svg2"
   inkscape:version="0.91 r13725"
   sodipodi:docname="profile.svg"><metadata
     id="metadata12"><rdf:RDF><cc:Work
         rdf:about=""><dc:format>image/svg+xml</dc:format><dc:type
           rdf:resource="http://purl.org/dc/dcmitype/StillImage" /></cc:Work></rdf:RDF></metadata><defs
     id="defs10" /><sodipodi:namedview
     pagecolor="#ffffff"
     bordercolor="#666666"
     borderopacity="1"
     objecttolerance="10"
     gridtolerance="10"
     guidetolerance="10"
     inkscape:pageopacity="0"
     inkscape:pageshadow="2"
     inkscape:window-width="1855"
     inkscape:window-height="1056"
     id="namedview8"
     showgrid="false"
     inkscape:zoom="3.9333333"
     inkscape:cx="30"
     inkscape:cy="30"
     inkscape:window-x="65"
     inkscape:window-y="24"
     inkscape:window-maximized="1"
     inkscape:current-layer="svg2" /><g
     id="g4"
     transform="matrix(1.3120185,0,0,1.3120185,-9.360555,-8.0485365)"
     style="fill:#cccccc"><path
       d="M 30,7 C 17.8,7 8,16.8 8,29 8,41.2 17.8,51 30,51 42.2,51 52,41.2 52,29 52,16.8 42.2,7 30,7 Z m 0,10 c 3.3,0 6,2.7 6,6 0,3.3 -2.7,6 -6,6 -3.3,0 -6,-2.7 -6,-6 0,-3.3 2.7,-6 6,-6 z m 0,27 C 25.7,44 21.8,42.1 19,39.2 20.9,35 25.1,32 30,32 c 4.9,0 9.1,3 11,7.2 -2.8,2.9 -6.7,4.8 -11,4.8 z"
       id="path6"
       inkscape:connector-curvature="0"
       style="fill:#cccccc" /></g></svg>